<svg width="16" height="16" viewBox="0 0 16 16" fill="none" xmlns="http://www.w3.org/2000/svg">
<path d="M8 5.96012L11.029 4.75012L3.529 1.75012L0.943 2.78412C0.812523 2.83606 0.689991 2.90608 0.579 2.99212L8 5.96112V5.96012ZM0.0350003 3.85312C0.0116737 3.9592 -6.18553e-05 4.0675 2.45166e-07 4.17612V11.8221C-4.98397e-05 12.122 0.0897657 12.4149 0.257855 12.6632C0.425945 12.9116 0.664593 13.1038 0.943 13.2151L6.7 15.5181C6.96 15.6221 7.228 15.6931 7.5 15.7321V6.83812L0.0350003 3.85212V3.85312ZM8.5 15.7331C8.7742 15.6937 9.04274 15.6219 9.3 15.5191L15.057 13.2161C15.3356 13.1047 15.5743 12.9123 15.7424 12.6638C15.9105 12.4153 16.0002 12.1221 16 11.8221V4.17612C16 4.06612 15.988 3.95712 15.965 3.85212L8.5 6.83812V15.7321V15.7331ZM15.421 2.99312L12.375 4.21212L4.875 1.21212L6.7 0.480121C7.53452 0.146275 8.46548 0.146275 9.3 0.480121L15.057 2.78312C15.1875 2.83507 15.31 2.90509 15.421 2.99112V2.99312Z" fill="#4C4D5A"/>
</svg>
